# xmcd CD database file
#
# Track frame offsets:
#	187
#	19385
#	22217
#	41540
#	63287
#	93410
#	111232
#	135265
#	155045
#	172645
#	193887
#	212917
#	241715
#
# Disc length: 3481 seconds
#
# Revision: 4
# Processed by: cddbd v1.5PL3 Copyright (c) Steve Scherf et al.
# Submitted via: CDex 1.50
#
DISCID=ad0d970d
DTITLE=Bruce Dickinson - Accident Of Birth
DYEAR=1997
DGENRE=Metal
TTITLE0=Freak
TTITLE1=Toltec 7 Arrival
TTITLE2=Starchildren
TTITLE3=Taking The Queen
TTITLE4=Darkside Of Aquarius
TTITLE5=Road To Hell
TTITLE6=Man Of Sorrows
TTITLE7=Accident Of Birth
TTITLE8=The Magician
TTITLE9=Welcome To The Pit
TTITLE10=The Ghost Of Cain
TTITLE11=Omega
TTITLE12=Arc Of Space
EXTD=YEAR: 1997
EXTT0=
EXTT1=
EXTT2=
EXTT3=
EXTT4=
EXTT5=
EXTT6=
EXTT7=
EXTT8=
EXTT9=
EXTT10=
EXTT11=
EXTT12=
PLAYORDER=
